<svg width="91" height="43" viewBox="0 0 91 43" fill="none" xmlns="http://www.w3.org/2000/svg">
<path d="M2.964 38.172C4.18 38.172 4.788 37.756 4.788 36.924C4.788 36.668 4.732 36.452 4.62 36.276C4.516 36.092 4.372 35.936 4.188 35.808C4.004 35.672 3.792 35.556 3.552 35.46C3.32 35.364 3.072 35.268 2.808 35.172C2.504 35.068 2.216 34.952 1.944 34.824C1.672 34.688 1.436 34.532 1.236 34.356C1.036 34.172 0.876 33.956 0.756 33.708C0.644 33.46 0.588 33.16 0.588 32.808C0.588 32.08 0.836 31.512 1.332 31.104C1.828 30.696 2.512 30.492 3.384 30.492C3.888 30.492 4.344 30.548 4.752 30.66C5.168 30.764 5.472 30.88 5.664 31.008L5.292 31.956C5.124 31.852 4.872 31.752 4.536 31.656C4.208 31.552 3.824 31.5 3.384 31.5C3.16 31.5 2.952 31.524 2.76 31.572C2.568 31.62 2.4 31.692 2.256 31.788C2.112 31.884 1.996 32.008 1.908 32.16C1.828 32.304 1.788 32.476 1.788 32.676C1.788 32.9 1.832 33.088 1.92 33.24C2.008 33.392 2.132 33.528 2.292 33.648C2.452 33.76 2.636 33.864 2.844 33.96C3.06 34.056 3.296 34.152 3.552 34.248C3.912 34.392 4.24 34.536 4.536 34.68C4.84 34.824 5.1 34.996 5.316 35.196C5.54 35.396 5.712 35.636 5.832 35.916C5.952 36.188 6.012 36.52 6.012 36.912C6.012 37.64 5.744 38.2 5.208 38.592C4.68 38.984 3.932 39.18 2.964 39.18C2.636 39.18 2.332 39.156 2.052 39.108C1.78 39.068 1.536 39.02 1.32 38.964C1.104 38.9 0.916 38.836 0.756 38.772C0.604 38.7 0.484 38.64 0.396 38.592L0.744 37.632C0.928 37.736 1.208 37.852 1.584 37.98C1.96 38.108 2.42 38.172 2.964 38.172ZM23.3667 30.6C24.5347 30.6 25.4307 30.824 26.0547 31.272C26.6867 31.712 27.0027 32.372 27.0027 33.252C27.0027 33.732 26.9147 34.144 26.7387 34.488C26.5707 34.824 26.3227 35.1 25.9947 35.316C25.6747 35.524 25.2827 35.676 24.8187 35.772C24.3547 35.868 23.8307 35.916 23.2467 35.916H22.3227V39H21.1587V30.804C21.4867 30.724 21.8507 30.672 22.2507 30.648C22.6587 30.616 23.0307 30.6 23.3667 30.6ZM23.4627 31.62C22.9667 31.62 22.5867 31.632 22.3227 31.656V34.92H23.1987C23.5987 34.92 23.9587 34.896 24.2787 34.848C24.5987 34.792 24.8667 34.704 25.0827 34.584C25.3067 34.456 25.4787 34.284 25.5987 34.068C25.7187 33.852 25.7787 33.576 25.7787 33.24C25.7787 32.92 25.7147 32.656 25.5867 32.448C25.4667 32.24 25.2987 32.076 25.0827 31.956C24.8747 31.828 24.6307 31.74 24.3507 31.692C24.0707 31.644 23.7747 31.62 23.4627 31.62ZM47.1578 39C47.0218 38.64 46.8938 38.288 46.7738 37.944C46.6538 37.592 46.5298 37.236 46.4018 36.876H42.6338L41.8778 39H40.6658C40.9858 38.12 41.2858 37.308 41.5658 36.564C41.8458 35.812 42.1178 35.1 42.3818 34.428C42.6538 33.756 42.9218 33.116 43.1858 32.508C43.4498 31.892 43.7258 31.284 44.0138 30.684H45.0818C45.3698 31.284 45.6458 31.892 45.9098 32.508C46.1738 33.116 46.4378 33.756 46.7018 34.428C46.9738 35.1 47.2498 35.812 47.5298 36.564C47.8098 37.308 48.1098 38.12 48.4298 39H47.1578ZM46.0658 35.916C45.8098 35.22 45.5538 34.548 45.2978 33.9C45.0498 33.244 44.7898 32.616 44.5178 32.016C44.2378 32.616 43.9698 33.244 43.7138 33.9C43.4658 34.548 43.2178 35.22 42.9698 35.916H46.0658ZM66.6522 39.18C66.0682 39.18 65.5362 39.084 65.0562 38.892C64.5762 38.7 64.1642 38.42 63.8202 38.052C63.4762 37.684 63.2082 37.232 63.0162 36.696C62.8322 36.152 62.7402 35.532 62.7402 34.836C62.7402 34.14 62.8442 33.524 63.0522 32.988C63.2682 32.444 63.5562 31.988 63.9162 31.62C64.2762 31.252 64.6962 30.972 65.1762 30.78C65.6562 30.588 66.1682 30.492 66.7122 30.492C67.0562 30.492 67.3642 30.516 67.6362 30.564C67.9162 30.612 68.1562 30.668 68.3562 30.732C68.5642 30.796 68.7322 30.86 68.8602 30.924C68.9882 30.988 69.0762 31.036 69.1242 31.068L68.7882 32.028C68.7162 31.98 68.6122 31.928 68.4762 31.872C68.3402 31.816 68.1842 31.76 68.0082 31.704C67.8402 31.648 67.6522 31.604 67.4442 31.572C67.2442 31.532 67.0402 31.512 66.8322 31.512C66.3922 31.512 65.9962 31.588 65.6442 31.74C65.2922 31.892 64.9922 32.112 64.7442 32.4C64.4962 32.688 64.3042 33.04 64.1682 33.456C64.0402 33.864 63.9762 34.324 63.9762 34.836C63.9762 35.332 64.0322 35.784 64.1442 36.192C64.2642 36.6 64.4402 36.952 64.6722 37.248C64.9042 37.536 65.1922 37.76 65.5362 37.92C65.8882 38.08 66.2962 38.16 66.7602 38.16C67.2962 38.16 67.7402 38.104 68.0922 37.992C68.4442 37.88 68.7082 37.78 68.8842 37.692L69.1842 38.652C69.1282 38.692 69.0282 38.744 68.8842 38.808C68.7402 38.864 68.5602 38.92 68.3442 38.976C68.1282 39.032 67.8762 39.08 67.5882 39.12C67.3002 39.16 66.9882 39.18 66.6522 39.18ZM84.2576 39V30.684H89.3336V31.68H85.4216V34.152H88.9016V35.124H85.4216V38.004H89.6336V39H84.2576Z" fill="white"/>
<path d="M7.92 21.28C5.66667 21.28 3.94667 20.6533 2.76 19.4C1.58667 18.1467 1 16.3667 1 14.06C1 12.9133 1.18 11.8933 1.54 11C1.9 10.0933 2.39333 9.33333 3.02 8.72C3.64667 8.09333 4.39333 7.62 5.26 7.3C6.12667 6.98 7.06667 6.82 8.08 6.82C8.66667 6.82 9.2 6.86667 9.68 6.96C10.16 7.04 10.58 7.14 10.94 7.26C11.3 7.36667 11.6 7.48 11.84 7.6C12.08 7.72 12.2533 7.81333 12.36 7.88L11.46 10.4C11.0333 10.1733 10.5333 9.98 9.96 9.82C9.4 9.66 8.76 9.58 8.04 9.58C7.56 9.58 7.08667 9.66 6.62 9.82C6.16667 9.98 5.76 10.24 5.4 10.6C5.05333 10.9467 4.77333 11.4 4.56 11.96C4.34667 12.52 4.24 13.2 4.24 14C4.24 14.64 4.30667 15.24 4.44 15.8C4.58667 16.3467 4.81333 16.82 5.12 17.22C5.44 17.62 5.85333 17.94 6.36 18.18C6.86667 18.4067 7.48 18.52 8.2 18.52C8.65333 18.52 9.06 18.4933 9.42 18.44C9.78 18.3867 10.1 18.3267 10.38 18.26C10.66 18.18 10.9067 18.0933 11.12 18C11.3333 17.9067 11.5267 17.82 11.7 17.74L12.56 20.24C12.12 20.5067 11.5 20.7467 10.7 20.96C9.9 21.1733 8.97333 21.28 7.92 21.28ZM14.5688 21V7.14H23.9288V9.76H17.6888V12.48H23.2288V15.04H17.6888V18.38H24.3888V21H14.5688ZM30.7577 6.98C32.8377 6.98 34.431 7.35333 35.5377 8.1C36.6443 8.83333 37.1977 9.98 37.1977 11.54C37.1977 12.5133 36.971 13.3067 36.5177 13.92C36.0777 14.52 35.4377 14.9933 34.5977 15.34C34.8777 15.6867 35.171 16.0867 35.4777 16.54C35.7843 16.98 36.0843 17.4467 36.3777 17.94C36.6843 18.42 36.9777 18.9267 37.2577 19.46C37.5377 19.98 37.7977 20.4933 38.0377 21H34.5377C34.2843 20.5467 34.0243 20.0867 33.7577 19.62C33.5043 19.1533 33.2377 18.7 32.9577 18.26C32.691 17.82 32.4243 17.4067 32.1577 17.02C31.891 16.62 31.6243 16.26 31.3577 15.94H29.8177V21H26.6977V7.34C27.3777 7.20667 28.0777 7.11333 28.7977 7.06C29.531 7.00667 30.1843 6.98 30.7577 6.98ZM30.9377 9.64C30.711 9.64 30.5043 9.64667 30.3177 9.66C30.1443 9.67333 29.9777 9.68667 29.8177 9.7V13.46H30.6977C31.871 13.46 32.711 13.3133 33.2177 13.02C33.7243 12.7267 33.9777 12.2267 33.9777 11.52C33.9777 10.84 33.7177 10.36 33.1977 10.08C32.691 9.78667 31.9377 9.64 30.9377 9.64ZM49.9425 21C49.7958 20.52 49.6292 20.0267 49.4425 19.52C49.2692 19.0133 49.0958 18.5067 48.9225 18H43.5225C43.3492 18.5067 43.1692 19.0133 42.9825 19.52C42.8092 20.0267 42.6492 20.52 42.5025 21H39.2625C39.7825 19.5067 40.2758 18.1267 40.7425 16.86C41.2092 15.5933 41.6625 14.4 42.1025 13.28C42.5558 12.16 42.9958 11.1 43.4225 10.1C43.8625 9.08667 44.3158 8.1 44.7825 7.14H47.7625C48.2158 8.1 48.6625 9.08667 49.1025 10.1C49.5425 11.1 49.9825 12.16 50.4225 13.28C50.8758 14.4 51.3358 15.5933 51.8025 16.86C52.2692 18.1267 52.7625 19.5067 53.2825 21H49.9425ZM46.2025 10.28C46.1358 10.48 46.0358 10.7533 45.9025 11.1C45.7692 11.4467 45.6158 11.8467 45.4425 12.3C45.2692 12.7533 45.0758 13.2533 44.8625 13.8C44.6625 14.3467 44.4558 14.92 44.2425 15.52H48.1825C47.9692 14.92 47.7625 14.3467 47.5625 13.8C47.3625 13.2533 47.1692 12.7533 46.9825 12.3C46.8092 11.8467 46.6558 11.4467 46.5225 11.1C46.3892 10.7533 46.2825 10.48 46.2025 10.28ZM58.7566 7.14C58.9966 7.58 59.2699 8.12667 59.5766 8.78C59.8966 9.42 60.2232 10.12 60.5566 10.88C60.9032 11.6267 61.2432 12.3933 61.5766 13.18C61.9099 13.9667 62.2232 14.7067 62.5166 15.4C62.8099 14.7067 63.1232 13.9667 63.4566 13.18C63.7899 12.3933 64.1232 11.6267 64.4566 10.88C64.8032 10.12 65.1299 9.42 65.4366 8.78C65.7566 8.12667 66.0366 7.58 66.2766 7.14H69.1166C69.2499 8.06 69.3699 9.09333 69.4766 10.24C69.5966 11.3733 69.6966 12.56 69.7766 13.8C69.8699 15.0267 69.9499 16.26 70.0166 17.5C70.0966 18.74 70.1632 19.9067 70.2166 21H67.1766C67.1366 19.6533 67.0832 18.1867 67.0166 16.6C66.9499 15.0133 66.8499 13.4133 66.7166 11.8C66.4766 12.36 66.2099 12.98 65.9166 13.66C65.6232 14.34 65.3299 15.02 65.0366 15.7C64.7566 16.38 64.4832 17.0333 64.2166 17.66C63.9499 18.2733 63.7232 18.8 63.5366 19.24H61.3566C61.1699 18.8 60.9432 18.2733 60.6766 17.66C60.4099 17.0333 60.1299 16.38 59.8366 15.7C59.5566 15.02 59.2699 14.34 58.9766 13.66C58.6832 12.98 58.4166 12.36 58.1766 11.8C58.0432 13.4133 57.9432 15.0133 57.8766 16.6C57.8099 18.1867 57.7566 19.6533 57.7166 21H54.6766C54.7299 19.9067 54.7899 18.74 54.8566 17.5C54.9366 16.26 55.0166 15.0267 55.0966 13.8C55.1899 12.56 55.2899 11.3733 55.3966 10.24C55.5166 9.09333 55.6432 8.06 55.7766 7.14H58.7566ZM73.0258 7.14H76.1458V21H73.0258V7.14ZM85.6739 21.28C83.4206 21.28 81.7006 20.6533 80.5139 19.4C79.3406 18.1467 78.7539 16.3667 78.7539 14.06C78.7539 12.9133 78.9339 11.8933 79.2939 11C79.6539 10.0933 80.1472 9.33333 80.7739 8.72C81.4006 8.09333 82.1472 7.62 83.0139 7.3C83.8806 6.98 84.8206 6.82 85.8339 6.82C86.4206 6.82 86.9539 6.86667 87.4339 6.96C87.9139 7.04 88.3339 7.14 88.6939 7.26C89.0539 7.36667 89.3539 7.48 89.5939 7.6C89.8339 7.72 90.0072 7.81333 90.1139 7.88L89.2139 10.4C88.7872 10.1733 88.2872 9.98 87.7139 9.82C87.1539 9.66 86.5139 9.58 85.7939 9.58C85.3139 9.58 84.8406 9.66 84.3739 9.82C83.9206 9.98 83.5139 10.24 83.1539 10.6C82.8072 10.9467 82.5272 11.4 82.3139 11.96C82.1006 12.52 81.9939 13.2 81.9939 14C81.9939 14.64 82.0606 15.24 82.1939 15.8C82.3406 16.3467 82.5672 16.82 82.8739 17.22C83.1939 17.62 83.6072 17.94 84.1139 18.18C84.6206 18.4067 85.2339 18.52 85.9539 18.52C86.4072 18.52 86.8139 18.4933 87.1739 18.44C87.5339 18.3867 87.8539 18.3267 88.1339 18.26C88.4139 18.18 88.6606 18.0933 88.8739 18C89.0872 17.9067 89.2806 17.82 89.4539 17.74L90.3139 20.24C89.8739 20.5067 89.2539 20.7467 88.4539 20.96C87.6539 21.1733 86.7272 21.28 85.6739 21.28Z" fill="white"/>
<line y1="26" x2="91" y2="26" stroke="white" stroke-width="2"/>
</svg>
